<svg xmlns="http://www.w3.org/2000/svg" width="64" height="65" viewBox="0 0 63.685 65.396" fill="none">
  <g transform="matrix(1,0,0,-1,0,65.396)">
    <path d="M 46.833 56.088 L 36.941 15.909 L 42.542 15.909 C 47.804 15.909 52.386 19.5 53.644 24.609 L 63.685 65.396 L 58.711 65.396 C 53.081 65.396 48.179 61.555 46.833 56.088 Z M 41.133 40.289 C 42.285 44.968 38.743 49.487 33.925 49.487 L 28.416 49.487 L 22.518 25.532 C 21.313 20.637 25.018 15.909 30.059 15.909 L 35.131 15.909 L 41.133 40.289 Z M 4.974 0 L 0 0 L 10.041 40.787 C 11.299 45.896 15.881 49.487 21.143 49.487 L 26.744 49.487 L 16.852 9.308 C 15.506 3.842 10.604 0 4.974 0 Z" fill="#5740A2" fill-rule="nonzero"></path>
  </g>
</svg>